<?xml version="1.0" encoding="UTF-8"?>
<svg id="Layer_2" data-name="Layer 2" xmlns="http://www.w3.org/2000/svg" viewBox="0 0 262 256">
  <defs>
    <style>
      .cls-1 {
        fill: #000;
        stroke-width: 0px;
      }
    </style>
  </defs>
  <g id="Layer_1-2" data-name="Layer 1">
    <path class="cls-1" d="M237.44,103.09c-21.59-20.83-43.28-41.56-64.84-62.42-13.86-13.4-27.58-26.95-41.6-40.67-14.02,13.72-27.74,27.27-41.6,40.67-21.57,20.86-43.25,41.59-64.84,62.42-37.47,36.15-31.64,74.62,14.6,98.65,13.51,7.02,27.59,7.66,41.8,4.91,15.65-3.03,31.02-7.47,48.14-11.69-9.66,35.44-38.36,47.87-67.26,61.04h138.32c-28.9-13.17-57.6-25.6-67.26-61.04,17.12,4.23,32.5,8.67,48.14,11.69,14.21,2.75,28.29,2.11,41.8-4.91,46.24-24.03,52.06-62.51,14.6-98.65Z"/>
  </g>
</svg>