<?xml version="1.0" encoding="utf-8"?>
<!-- Generator: Adobe Illustrator 28.3.0, SVG Export Plug-In . SVG Version: 6.00 Build 0)  -->
<svg version="1.1" id="Layer_2_00000013907339115559118440000012455352306714020738_"
	 xmlns="http://www.w3.org/2000/svg" xmlns:xlink="http://www.w3.org/1999/xlink" x="0px" y="0px" viewBox="0 0 262 256"
	 style="enable-background:new 0 0 262 256;" xml:space="preserve">
<style type="text/css">
	.st0{fill:#FFFFFF;}
</style>
<g id="Layer_1-2">
	<path class="st0" d="M237.4,103.1c-21.6-20.8-43.3-41.6-64.8-62.4C158.7,27.3,145,13.7,131,0c-14,13.7-27.7,27.3-41.6,40.7
		c-21.6,20.9-43.2,41.6-64.8,62.4c-37.5,36.1-31.6,74.6,14.6,98.6c13.5,7,27.6,7.7,41.8,4.9c15.7-3,31-7.5,48.1-11.7
		c-9.7,35.4-38.4,47.9-67.3,61h138.3c-28.9-13.2-57.6-25.6-67.3-61c17.1,4.2,32.5,8.7,48.1,11.7c14.2,2.8,28.3,2.1,41.8-4.9
		C269.1,177.7,274.9,139.2,237.4,103.1z"/>
</g>
</svg>
