<?xml version="1.0" encoding="UTF-8"?>
<svg id="layer" xmlns="http://www.w3.org/2000/svg" xmlns:xlink="http://www.w3.org/1999/xlink" viewBox="0 0 1885.65 2052">
  <defs>
    <style>
      .cls-1 {
        clip-path: url(#clippath-2);
      }

      .cls-2 {
        clip-path: url(#clippath-1);
      }

      .cls-3 {
        clip-rule: evenodd;
        fill: none;
        stroke-width: 0px;
      }

      .cls-4 {
        clip-path: url(#clippath);
      }

      .cls-5 {
        clip-path: url(#clippath-3);
      }
    </style>
    <clipPath id="clippath">
      <path class="cls-3" d="M352.65,1348c.67,6,1.33,12,2,18,.67.33,1.33.67,2,1,8.63-4.25,19.56-8.99,29-4,1,9,2,18,3,27,6.67.33,13.33.67,20,1-.33,1-.67,2-1,3-20.54,18.37-37.05,16.25-64,28-10.76,4.69-17.28,12.74-31,16-30.33,2.67-60.67,5.33-91,8-4.33,4-8.67,8-13,12-12.98-2.4-16.49-11.85-27-15-8.21,3.06-20.63,4.26-28,0-2,27.33-4,54.67-6,82-6.67,12-13.33,24-20,36,.67,13.33,1.33,26.67,2,40,5.55,35.26,8.27,96.21-7,117-2-.33-4-.67-6-1-20.21-11.1-7.95-43.63-20-63h-6c-15.82,10.76-10.69,61.87-2,84,4.28,10.89,25.35,14.51,19,33-1.65,3.65-2.39,4.31-6,6-27.97,13.94-58.22-33.14-65-51-24.77-65.21,4.39-133.7-7-205-3.8-23.8,4.62-57.42-3-75-5-3.67-10-7.33-15-11-4.01-7.35-14.32-66.82-11-78,4.73-15.92,17.46-29.55,22-49,2-16.66,4-33.33,6-50,3.33-14.21,11.73-25.67,15-37-1-12.67-2-25.33-3-38,4-28,8-56,12-84,3.6-17.5,15.92-26.98,18-44-.67-20.66-1.33-41.34-2-62,8-45.33,16-90.67,24-136,4-27.66,8-55.34,12-83,6.67-18,13.33-36,20-54,4.47-14.2,6.02-30.22,14-41,5.33-4.33,10.67-8.67,16-13-6.51-43.37,22.26-57.29,46-76,8-7.33,16-14.67,24-22,27.93-15.53,64.64-14.42,90-32,10.71-7.43,8.88-24.9,16-36,11-12,22-24,33-36,.67-74.82-16.74-58.19-46-97-10.94-14.51-24.92-28.06-34-43-2.33-6-4.67-12-7-18-12.67-13-25.33-26-38-39-3.9-6.5-18.56-42.2-20-48-2.91-11.72,11.18-84.02,15-96,6.03-18.92,21.61-29.36,32-44,13.14-18.5,30.54-29.05,44-46,5-6,10-12,15-18,28.23-20.73,92.67-18.53,119,2,9.33,13.33,18.67,26.67,28,40,21,4,42,8,63,12,37.36,15.61,80.08,85.28,57,144,5,5.33,10,10.67,15,16,16.42,27.4-13.91,45.28-21,62-6.94,16.35-5.65,36.05-9,56-2.44,14.5-8.6,51.4,0,64,4.9,7.18,35.96,15.04,45,22,24.16,18.6,36.4,47.22,64,63,44.61,25.51,95.06,23.29,127,63,22.93,28.51,49.29,62.67,61,101,9.44,30.88-.49,71.82,5,107,6.93,44.45,17.9,113.41,9,163-8.67,39.33-17.33,78.67-26,118-16.21,74.75-19.5,155.27-110,155-.33-1-.67-2-1-3-10.18-15.49,7.1-37.76,11-51,3.62-12.3,3.89-81.23,0-100-6.01-28.96-42.55-97.74-60-117-9-6.33-18-12.67-27-19-20.25-28.45-28.22-52.81-63-67-17.11-6.98-37.86-6.67-58-11-24.33-5.23-52.65-18.59-84-13-20.41,3.64-36.81,13.27-54,20-11.91,4.67-27.25.84-38,5-26.54,10.27-47.3,35.83-69,52-12.27,9.14-28.66,16.06-38,28-7,8.94-8.45,20.15-13,32-8.23,21.41-45.07,106.12-25,133v-2c2-3.67,4-7.33,6-11,.67.33,1.33.67,2,1-1.3,101.25,64.75,129.41,62,232,13.06,1.32,20.33,8.24,27,16-.39,10.82-2.83,23.17,2,30,7.16-3.72,11.38-8.87,21-10Z"/>
    </clipPath>
    <clipPath id="clippath-1">
      <path class="cls-3" d="M1099.65,3c32.23-.06,75.6,3.47,101,14,15.99,6.62,27.87,22.11,39,34,18.87,20.16,40.37,39.8,55,64,20.05,33.17,34.88,108.2,42,154,4.9,31.51-10.89,45.87-15,66-2.24,10.99,4.46,15.78,6,23,4.39,20.51-8.26,33.04,2,50,41.12,11.9,93.75,11.76,139,20,18.33,3.34,39.83,1.33,53,10,38.77,25.53,41.25,75.35,53,129,15.05,68.7,31.72,132.83,46,199-39.19-29.58-70.78-64.28-124-81-29.53-9.28-61.53-5.65-89,2-80.37,22.38-130.61,58.85-168,123-22.36,38.36-38.6,109.98-28,174,.67,15.67,1.33,31.33,2,47,8.11,34.5,23.66,64.41,43,88,13.31,16.24,37.22,18.97,58,28-1.33,1.67-2.67,3.33-4,5-30.78,12.18-82.84,58.81-106,82-10.72,10.74-30.08,25.31-21,38,15.85,6.82,35.29,23.67,42,40-5.51,8.69-7.75,10.91-17,16-5-1.67-10-3.33-15-5,2,5.96,1.5,9.99,0,16-7.75,5.61-17.34,12.47-33,10-4-.67-8-1.33-12-2-6,4-12,8-18,12-19.23,7.79-38.24-1.88-55-5-10.75,12.93-43.74,23.46-50,32-24.47,38.67-28.73,112.88-21,170h-1v-2c-17.33-24.66-34.67-49.34-52-74-17.22-21.4-58.45-35.58-84-48,2.57-19.02,13.94-79.67,7-92-10.45-4.33-32.37-19.26-36-30-1.67-13-3.33-26-5-39-10.65-23.98-35.28-41.27-39-73,11-11.5,25.27-16.83,34-31,17-27.6,21.2-68.26,30-103,11.83-46.7,22.29-95.87,31-146,6.72-38.65-4.29-111.28-10-146-6.52-39.66,1.38-83.23-9-117-9.49-30.88-30.9-55.86-47-81,.33-1,.67-2,1-3,43-23.33,86-46.67,129-70,14.38-8.36,26.8-17.16,49-18-2.11-11.64-10.22-37.21-18-45-.67,3-1.33,6-2,9-7.65-3.61-15.55-11.57-23-6,.33-10,.67-20,1-30-8.05-21.14-34.87-33.57-41-62-7.04-32.64-23.56-96.5-17-134,11.75-67.14,40.11-142.64,86-177,10.14-7.59,21.03-10.99,39-11h19c9.67-5.67,19.33-11.33,29-17,8-2.33,16-4.67,24-7Z"/>
    </clipPath>
    <clipPath id="clippath-2">
      <path class="cls-3" d="M1010.65,2052c2.34-52.96,2.94-114.46-5-165-1.33-26.33-2.67-52.67-4-79,8.7-42.43,24.02-82.33,32-130,9-53.82-18.08-86.52-28-121-.33-10.67-.67-21.33-1-32-7.49-48.05-.67-107.13,18-137,8.01-12.82,26.09-14.05,39-22,5-4.67,10-9.33,15-14,33.4,12.69,43.25,14.4,70-6,14.59,2.97,29.72,3.95,41-3,1.67-8.33,3.33-16.67,5-25,4.84,3.31,12.76,9.52,21,6,4.95-2.28,5.92-4.92,8-10-2.25-21.15-28.1-40.3-45-47,1.14-4.02,1.37-3.83,4-6,23.58-49.15,93.54-72.35,129-111-.33-2-.67-4-1-6-21.15-6.82-37.77-11.13-53-23-40.98-31.95-60.71-155.77-43-226,23.19-91.96,62.52-150.09,139-189,20.65-10.51,67.16-35.61,101-29,95.97,18.73,190.93,83.37,217,170,9.77,32.47,6.95,77.36,7,116,.04,34,4.36,75.58-6,102-16.05,40.92-37.42,84.3-63,117-11.65,14.89-33.86,33.32-25,59,29.47,15.69,79.32,29.52,96,58,13.94,23.79-9.29,109.56-3,145,6.06,34.15,30.01,56.14,33,91,1.67,19.46-14.9,31.89-18,51,3.67,34.66,7.33,69.34,11,104,4,58.33,8,116.67,12,175,20.68,84.47,118.95,125.14,166,187h-869Z"/>
    </clipPath>
    <clipPath id="clippath-3">
      <path class="cls-3" d="M471.65,823c45.11-.61,141.27,19.48,166,39,18.17,14.34,28.57,37.82,43,56,8.33,6.33,16.67,12.67,25,19,3.67,7.67,7.33,15.33,11,23,16.86,28.18,38.07,55.16,45,93-.33,15-.67,30-1,45,2.28,13.73,7.4,32.77,4,50-4.67,16-9.33,32-14,48v66c-3.87,23.99-4.18,64.05,2,86,14.07,49.96,115.74,79.09,160,105,47.76,27.96,98.43,100.66,116,158,9.4,30.69,3.87,78.63-3,108-12.73,54.4-29.35,103.19-48,151-12.24,31.38-20.1,62.74-36,90-15.91,27.27-44.51,55.73-48,92-289.3-.33-578.7-.67-868-1,3.37-27.58,14.57-47.84,19-71,4.26-22.25-3.8-43.67,1-64,11.67-29,23.33-58,35-87,14.16-32.36,45.15-54.97,52-91,5.43-28.57-5.15-60.77,1-88,6.88-30.46,25.73-53.84,32-87,7.65-40.45,4.13-82.14,30-103,30.95-24.95,72.04-3.14,114-15,13.16-3.72,16.57-13.66,26-20,9.67-2.67,19.33-5.33,29-8,16.33-8.33,32.67-16.67,49-25v-2c-8.86.69-17.71,3.45-25,0,.28-8.54.64-19.47-2-25-11.09-1.2-22.24-.24-32,2,.32-8.28-.4-14.25-3-19h-5c-3.32,2.12-4.33,4.43-7,7-10.37-8.12-3.47-17.66-10-28-5.4-8.54-20.69-8.06-26-17-1.91-6.96,4.86-13.91,2-22-2.16-3.97-3.53-3.51-8-5,4.65-52.24-21.36-72.7-38-112-11.68-27.58-12.43-57.53-19-92-8.24,2.6-6.15,8.33-9,16-1.41-17.15-6.36-34.79-3-54,5.71-32.64,23.77-87.28,41-110,16-12,32-24,48-36,18.04-14.52,33.11-35.57,56-45,11.53-4.75,21.89.88,34-2,8.67-5.33,17.33-10.67,26-16,12.67-3,25.33-6,38-9Z"/>
    </clipPath>
  </defs>
  <image id="all" width="1885" height="2052" transform="translate(.65)" xlink:href="ivos_full copy-1.png"/>
  <g id="badjao">
    <g class="cls-4">
      <image id="ivos5_Image" data-name="ivos5 Image" width="888" height="1779" transform="translate(.65)" xlink:href="ivos_full copy-2.png"/>
    </g>
  </g>
  <g id="blaster">
    <g class="cls-2">
      <image id="ivos5_copy_3_Image" data-name="ivos5 copy 3 Image" width="826" height="1554" transform="translate(794.65 3)" xlink:href="ivos_full copy-3.png"/>
    </g>
  </g>
  <g id="unique">
    <g class="cls-1">
      <image id="ivos5_copy_2_Image" data-name="ivos5 copy 2 Image" width="884" height="1375" transform="translate(1001.65 677)" xlink:href="ivos_full copy-4.png"/>
    </g>
  </g>
  <g id="zild">
    <g class="cls-5">
      <image id="ivos5_copy_Image" data-name="ivos5 copy Image" width="1007" height="1229" transform="translate(25.65 823)" xlink:href="ivos_full copy-5.png"/>
    </g>
  </g>
</svg>